<svg width="356" height="54" viewBox="0 0 356 54" fill="none" xmlns="http://www.w3.org/2000/svg">
<path d="M289.238 1.04404C287.11 1.54804 269.72 2.05204 247.613 2.22004C209.688 2.38804 209.04 2.47204 185.453 5.91604C180.18 6.67204 179.07 6.00004 182.955 4.40404C184.343 3.90004 185.175 3.22804 184.898 2.97604C184.343 2.38804 172.04 4.74004 167.045 6.33604C164.918 7.00804 160.108 7.93204 156.408 8.43604C144.013 10.032 64.925 10.116 54.5651 8.43604C47.9051 7.42804 29.8675 8.68804 24.225 10.62C21.9125 11.376 17.6575 12.804 14.79 13.728C11.83 14.736 9.42505 15.996 9.42505 16.5C9.42505 17.088 7.39005 18.012 4.80005 18.6C-0.472451 19.776 -1.58245 21.624 3.41255 20.868C7.48255 20.28 7.57505 20.784 3.69005 22.296L0.637549 23.472L3.13505 23.556C6.18755 23.64 5.81755 25.404 2.39505 27C-0.842451 28.596 -0.379951 29.52 3.69005 29.52H7.11255L3.87505 31.032C-1.02745 33.216 -0.287451 34.812 6.18755 35.82L11.7375 36.744L7.57505 37.416L3.41255 38.172L8.87005 39.684C16.085 41.784 28.295 43.548 44.1125 44.892C59.005 46.068 72.4175 45.816 68.6251 44.472C67.3301 43.968 62.8901 43.548 58.6351 43.464C53.3626 43.38 51.1426 43.128 51.4201 42.456C51.6976 41.784 49.2925 41.28 43.7425 40.86C39.3025 40.524 35.0475 39.936 34.3075 39.516C32.6425 38.592 33.845 38.592 47.35 39.6C53.1775 40.104 66.3126 40.44 76.4875 40.44C88.1426 40.44 98.5951 40.944 104.7 41.7C116.355 43.212 138.74 45.144 154.558 45.9C164.085 46.404 165.843 46.74 164.548 47.58C162.513 48.924 162.605 49.68 164.825 49.68C166.028 49.68 166.49 50.1 166.12 50.856C165.75 51.864 166.675 52.2 170.56 52.452C173.243 52.704 167.323 52.788 157.425 52.62C145.123 52.536 141.33 52.62 145.4 53.124C156.13 54.3 178.608 54.048 189.245 52.62C200.808 51.024 218.475 46.656 226.985 43.212L232.813 40.776L246.225 41.532C265.373 42.54 282.208 41.868 291.273 39.6C297.563 38.088 299.875 36.912 306.905 32.04C318.468 23.892 323.37 21.036 331.325 17.76C335.118 16.164 338.818 14.484 339.465 13.896C340.113 13.308 342.148 12.552 344.09 12.3C354.45 10.704 355.005 10.536 353.433 8.85604C352.785 8.10004 350.658 7.68004 347.883 7.68004C341.5 7.68004 342.24 6.00004 348.715 5.83204L353.988 5.66404L349.085 5.41204C342.795 4.99204 343.72 3.48004 350.38 3.48004C353.155 3.48004 355.375 3.14404 355.375 2.72404C355.375 1.63204 348.345 0.876038 339.928 0.960037C335.95 0.960037 323.74 0.792038 312.825 0.624039C300.615 0.372036 291.458 0.540035 289.238 1.04404ZM86.2001 34.476C86.2001 35.4 60.9476 36.156 56.1376 35.4C53.9176 35.064 54.3801 34.896 58.4501 34.476C67.0526 33.636 86.2001 33.636 86.2001 34.476ZM92.675 36.996C95.4501 37.5 90.7326 37.752 78.3376 37.836C66.1275 37.836 60.3001 37.584 61.2251 37.08C62.8901 36.072 86.7551 36.072 92.675 36.996Z" fill="url(#paint0_linear_47_310)"/>
<defs>
<linearGradient id="paint0_linear_47_310" x1="177.787" y1="53.869" x2="177.787" y2="0.508259" gradientUnits="userSpaceOnUse">
<stop stop-color="#EF7703"/>
<stop offset="0.666667" stop-color="#E74416"/>
</linearGradient>
</defs>
</svg>
