<svg width="566" height="49" viewBox="0 0 566 49" fill="none" xmlns="http://www.w3.org/2000/svg">
<path d="M160.483 0.829177C145.326 2.57173 132.993 9.7162 127.643 19.9101L124.672 25.8348L118.431 26.3576C115.013 26.619 103.571 27.0546 92.8721 27.316C50.671 28.4487 19.3174 31.6724 6.3896 36.1159C0.891573 38.0327 0 38.6426 0 41.2564C0 43.696 0.891573 44.6544 5.49803 46.4841C12.1848 49.0979 16.1969 49.2722 21.1006 46.9197C23.1809 46.0485 27.7873 44.8287 31.3536 44.3059C42.9441 42.6505 174.154 42.2148 259.596 43.5218C302.838 44.2188 345.782 44.7415 355.143 44.6544C364.505 44.6544 398.979 44.4802 431.67 44.393C464.361 44.3059 502.847 43.8703 517.112 43.5218C546.088 42.8247 550.695 42.0406 560.799 35.9416L566 32.805L562.731 30.1912C560.948 28.71 557.084 26.8804 554.261 26.0091C540.144 21.827 471.791 12.4172 433.899 9.54195C400.613 7.01524 299.717 1.70045 265.986 0.742049C230.769 -0.303484 169.696 -0.216356 160.483 0.829177Z" fill="url(#paint0_linear_74_282)"/>
<defs>
<linearGradient id="paint0_linear_74_282" x1="283" y1="48.5713" x2="283" y2="0.000102997" gradientUnits="userSpaceOnUse">
<stop stop-color="#E74416"/>
<stop offset="1" stop-color="#EF7703"/>
</linearGradient>
</defs>
</svg>
