<svg width="34" height="90" viewBox="0 0 34 90" fill="none" xmlns="http://www.w3.org/2000/svg">
<path d="M27.2062 0.449191C26.968 0.880036 26.2196 13.4607 25.8113 23.6717C25.7093 26.6446 25.5052 29.7036 25.3691 30.5222C25.1649 31.8578 25.0629 31.5131 24.1783 27.2047C23.634 24.5334 23.1577 22.0345 23.1237 21.6037C23.0897 21.2159 22.9876 20.5697 22.8515 20.225C22.7495 19.8803 22.3412 18.2 21.967 16.5628C19.9598 7.47196 19.6536 6.5241 18.4289 4.80072C17.6464 3.72361 17.068 3.59435 16.5577 4.36988C16.2175 4.88689 15.0948 15.658 14.6186 23.0255C14.4825 24.9212 14.2103 26.6015 13.9722 26.7738C13.7 27.0323 13.7 27.2047 13.9722 27.4201C14.2103 27.6786 14.2443 30.2206 14.0742 35.52C13.8701 43.0598 13.9381 51.9352 14.4144 66.2392C14.5165 70.0737 14.5165 73.2189 14.4144 73.2189C14.3124 73.2189 13.768 72.4003 13.1897 71.3663C11.4887 68.3935 7.30412 63.3957 4.58247 61.0691L2.06495 58.9149L1.28247 60.0781C0.840206 60.6813 0.5 61.4568 0.5 61.8015C0.5 62.1031 1.55464 63.2664 2.84742 64.3866C7.50825 68.3073 12.3052 75.2008 14.9928 81.922C15.9113 84.2916 16.1495 85.3257 16.1495 87.4368C16.1495 90.2804 16.4216 90.582 17.8505 89.2033C18.599 88.4708 18.667 88.04 18.7351 84.9379C18.8711 79.4662 19.8577 76.1056 22.7835 70.8493C24.4845 67.8334 28.7371 62.534 31.5608 59.9058C32.6155 58.9149 33.5 57.8378 33.5 57.4931C33.5 56.5452 33.1938 56.6745 30.9825 58.5271C26.6959 62.1462 21.4227 69.169 19.2454 74.1668C18.1907 76.5795 17.6804 76.838 17.9866 74.7269C18.1567 73.7359 18.0887 73.2189 17.8505 73.2189C17.6124 73.2189 17.4763 72.2711 17.5443 70.5046C17.5784 68.9966 17.5103 67.5318 17.3742 67.2302C17.2381 66.9717 17.034 63.6972 16.966 59.992C16.8639 56.2436 16.7278 53.1415 16.6258 53.0123C16.3876 52.7107 16.4897 37.1572 16.7278 36.8556C16.8639 36.7263 16.8979 35.3907 16.8639 33.8828C16.7959 31.2115 17.3742 19.9665 17.6804 18.2431C17.7825 17.7261 18.1567 17.2091 18.5309 17.0798C19.0753 16.9075 19.2454 17.166 19.5175 18.4154C20.368 22.6808 20.6402 24.5765 20.4701 25.1366C20.368 25.4813 20.4021 25.826 20.5381 25.9121C20.7082 25.9983 21.3206 28.5403 21.899 31.6424C23.7021 41.2071 25.0289 46.1188 25.9134 46.6358C26.4918 46.9805 26.832 46.9374 27.1041 46.5927C27.3423 46.2911 27.7165 41.2933 28.0907 32.8487C28.3969 25.5244 28.8732 15.4857 29.1113 10.4448C29.4856 2.94809 29.4515 1.22471 29.1113 0.664614C28.601 -0.110908 27.5124 -0.240161 27.2062 0.449191ZM18.8371 15.141C18.8711 15.5718 18.633 15.9165 18.3608 15.9165C17.8165 15.9165 17.7485 15.3995 18.0887 13.8054C18.2928 12.8144 18.3268 12.8144 18.5649 13.59C18.701 14.0208 18.8371 14.7532 18.8371 15.141Z" fill="white"/>
<path d="M24.9382 13.213C24.9382 13.3374 25.0413 13.4619 25.1444 13.4619C25.2681 13.4619 25.3506 13.3374 25.3506 13.213C25.3506 13.0636 25.2681 12.964 25.1444 12.964C25.0413 12.964 24.9382 13.0636 24.9382 13.213Z" fill="white"/>
<path d="M24.9382 17.171C24.9382 17.3204 25.0413 17.4946 25.1444 17.5693C25.2681 17.644 25.3506 17.5444 25.3506 17.3453C25.3506 17.1212 25.2681 16.947 25.1444 16.947C25.0413 16.947 24.9382 17.0465 24.9382 17.171Z" fill="white"/>
<path d="M25.1445 36.1148C25.1445 36.2392 25.2476 36.3637 25.3507 36.3637C25.4744 36.3637 25.5569 36.2392 25.5569 36.1148C25.5569 35.9654 25.4744 35.8658 25.3507 35.8658C25.2476 35.8658 25.1445 35.9654 25.1445 36.1148Z" fill="white"/>
<path d="M25.2477 40.3217C25.1858 40.4462 25.227 40.6204 25.3507 40.72C25.4538 40.7947 25.5569 40.6951 25.5569 40.496C25.5569 40.0479 25.4332 39.9732 25.2477 40.3217Z" fill="white"/>
</svg>
