<svg width="644" height="260" viewBox="0 0 644 260" fill="none" xmlns="http://www.w3.org/2000/svg">
<path d="M480.872 1.85152L476.331 3.83089L472.458 2.21807C468.985 0.751869 468.184 0.751869 464.979 1.7049C462.308 2.438 460.571 2.51131 458.167 1.92483C455.897 1.33835 453.893 1.41166 450.688 1.99814C448.284 2.51131 444.678 2.87786 442.674 2.87786C440.671 2.87786 437.465 3.31772 435.462 3.9042C432.657 4.71061 426.914 4.93054 411.288 4.78392C391.254 4.56399 390.72 4.6373 386.98 6.39674C382.706 8.30281 382.973 8.30281 363.741 7.27646C347.446 6.39674 347.446 6.39674 342.238 6.98322C339.433 7.27646 336.494 6.98322 333.69 6.17681C330.217 5.22378 328.748 5.07716 326.477 5.81026C324.207 6.47005 322.738 6.39674 319.666 5.51702C315.926 4.49068 315.392 4.49068 310.05 6.25012C304.44 8.00957 304.307 8.08288 296.827 6.8366C288.279 5.51702 264.105 5.66364 259.564 7.05653C258.095 7.5697 252.085 8.30281 246.342 8.74267C240.599 9.18253 235.123 9.91563 234.321 10.5021C232.452 11.7484 227.777 12.4082 214.154 13.1413C208.277 13.4345 194.521 14.5342 183.435 15.6338C172.483 16.6602 151.515 18.1997 136.957 18.9328C122.399 19.7392 104.101 21.0588 96.2209 21.8652C88.3409 22.6716 79.7931 23.5513 77.2555 23.7712C71.1117 24.2844 68.1734 27.4367 70.3104 31.3222C71.7795 33.9613 70.5775 36.6005 67.9063 36.6005C67.105 36.6005 66.5707 37.0403 66.5707 37.5535C66.5707 39.5329 48.2731 48.6966 42.9307 49.4298C36.5198 50.2362 32.9137 51.9223 34.3829 53.3152C35.3178 54.2682 37.8554 54.4881 46.8039 54.5615C52.8141 54.5615 58.9578 54.928 60.1599 55.3679C62.2968 56.0277 62.2968 56.2476 59.2249 58.6668C55.6188 61.3793 53.2148 61.8192 17.8215 66.0711C10.8764 66.8775 9.80793 67.2441 9.27369 68.8569C9.00657 70.1765 10.075 71.2028 13.1469 72.669L17.5544 74.6484L14.2154 76.8477C12.3456 78.0207 10.3422 80.22 9.94149 81.6129C9.40725 83.2257 7.80454 84.6919 5.80115 85.425C3.79775 86.1581 2.46216 87.3311 2.46216 88.4307C2.46216 89.8236 3.66419 90.4834 8.60589 91.7297C14.4825 93.1225 16.4859 93.1959 42.3964 92.756C57.4887 92.4628 73.7829 92.1695 78.5911 92.0229L87.2724 91.7297L78.5911 92.3894C57.088 94.0756 47.071 96.055 38.1225 100.38C32.3795 103.166 31.9788 104.779 36.5198 107.271C40.5266 109.471 40.5266 110.204 37.0541 117.242C33.0473 125.159 32.7802 126.259 34.7836 127.652C37.7219 129.778 57.8893 131.317 77.2555 130.877C86.4711 130.657 92.4813 130.731 90.6114 131.097C88.0738 131.464 87.2724 132.123 87.5396 133.443C87.6731 134.909 87.1389 135.276 84.8684 135.276C81.3958 135.203 80.0602 137.695 82.9985 138.648C84.2006 138.941 85.8033 140.481 86.7382 141.947C88.0738 144.22 87.9402 144.733 86.0704 145.466C84.8684 145.979 83.9335 147.079 83.9335 147.958C83.9335 148.838 83.1321 149.498 81.9301 149.498C78.7246 149.498 79.6595 150.818 82.9985 151.111C85.5362 151.331 85.0019 151.697 78.9917 153.897C75.1185 155.289 71.9131 156.682 71.9131 156.902C71.9131 157.855 83.5328 158.075 100.628 157.489C110.245 157.122 120.529 156.976 123.734 157.196C141.23 158.295 141.631 158.368 140.028 159.395C139.227 159.908 136.957 160.494 134.953 160.714C122.799 162.107 118.125 162.767 113.45 164.087C106.772 165.993 105.837 166.872 108.508 168.485C109.71 169.218 110.645 170.318 110.645 170.978C110.645 171.784 111.714 172.224 113.984 172.224C117.59 172.224 118.258 172.884 115.721 174.277C114.385 175.01 114.385 175.376 115.854 175.816C117.19 176.329 116.388 176.769 112.782 177.722C107.573 179.115 106.906 179.848 109.978 180.875C113.049 181.754 110.512 185.053 103.567 188.939C100.628 190.625 98.625 192.018 99.2928 192.018C100.094 192.018 108.108 191.505 117.323 190.918C140.696 189.379 169.412 188.646 169.412 189.599C169.412 190.038 167.675 190.772 165.405 191.285C161.799 192.091 161.398 192.531 161.398 195.61C161.264 198.762 160.997 199.129 155.655 200.888C152.583 201.915 144.703 203.674 138.025 204.774C131.481 205.873 122.666 207.34 118.659 207.999C111.981 209.099 111.313 209.466 110.912 211.518C110.378 214.231 112.382 215.257 118.659 215.624L123.334 215.844L117.323 217.603C113.984 218.556 109.71 219.949 107.707 220.755L104.101 222.148L108.642 224.567C113.183 227.06 113.183 227.06 110.512 228.38C108.508 229.333 107.974 230.359 108.375 231.972C108.776 233.438 108.241 234.464 106.772 235.051C104.902 235.857 104.902 236.004 107.573 236.444C111.447 237.03 110.245 238.423 103.834 240.696C101.029 241.795 98.625 242.895 98.625 243.262C98.625 244.948 118.525 245.681 154.854 245.461C188.377 245.168 191.983 245.314 189.713 246.267C185.706 248.1 184.237 250.006 185.706 251.399C186.774 252.352 186.374 253.012 183.569 254.551C175.288 259.097 180.631 259.683 227.376 259.39C245.14 259.243 260.366 259.39 261.434 259.756C262.636 260.196 263.838 260.05 264.907 259.243C266.91 257.704 269.848 257.557 277.995 258.29C282.002 258.657 289.081 258.583 296.694 257.997C303.505 257.484 316.861 256.824 326.344 256.384C362.539 254.991 366.545 254.698 370.151 253.378C374.158 251.985 378.566 251.766 379.901 252.938C381.37 254.258 394.726 253.305 398.867 251.619C402.339 250.226 402.874 250.226 406.346 251.179C411.956 252.792 427.048 252.059 438.935 249.566C444.143 248.467 448.551 247.22 448.551 246.927C448.551 246.561 448.017 246.267 447.349 246.267C446.681 246.267 445.88 245.607 445.479 244.801C445.078 243.995 443.208 243.042 441.339 242.602C436.931 241.722 436.931 241.429 441.873 240.036C445.613 238.936 447.082 237.25 444.811 236.444C444.277 236.297 440.537 236.59 436.531 237.177C428.116 238.35 425.846 238.423 425.846 237.617C425.846 236.737 434.661 234.758 440.537 234.244C443.743 233.951 446.28 234.171 448.417 234.978C451.222 236.077 451.489 236.59 450.821 239.816C450.02 243.335 450.02 243.408 455.229 245.168C458.167 246.194 462.04 247 464.044 247C466.581 247 467.383 247.294 466.715 248.1C466.314 248.833 466.849 249.2 468.318 249.2C470.588 249.2 479.27 244.068 479.27 242.748C479.27 242.382 483.677 241.869 489.019 241.575C494.228 241.282 499.704 240.916 501.04 240.696C502.776 240.402 503.711 240.916 504.779 242.455C505.581 243.701 506.916 244.801 507.718 245.021C510.656 245.534 534.697 244.068 546.316 242.602C552.727 241.795 561.142 241.136 565.015 241.209C573.83 241.429 587.453 239.743 588.388 238.35C589.857 236.297 585.449 235.124 576.234 235.197L567.552 235.271L572.494 232.412C577.436 229.553 579.439 229.259 579.439 231.239C579.439 232.925 585.316 233.291 594.799 232.338C600.007 231.825 606.952 231.679 612.428 231.972C620.308 232.412 622.445 232.192 628.456 230.652C636.87 228.526 639.541 227.353 639.541 225.96C639.541 225.154 638.606 225.007 636.202 225.301C631.26 225.96 631.928 223.908 636.87 222.881C641.01 222.148 644.216 218.996 643.013 217.163C641.945 215.697 633.798 214.011 627.253 213.938C624.048 213.938 620.308 213.644 618.839 213.278C616.435 212.765 616.569 212.691 620.175 212.178C630.325 210.932 635.935 208.806 633.264 207.34C632.462 206.9 625.784 206.24 618.305 205.8C607.22 205.14 604.415 204.7 603.346 203.527C602.144 202.355 600.942 202.208 595.466 202.648C591.46 202.941 588.788 202.868 588.121 202.355C587.72 201.915 582.778 201.548 577.035 201.475C565.683 201.475 559.806 200.742 563.813 199.862C565.683 199.495 571.426 193.704 571.426 192.311C571.426 191.578 562.076 192.091 558.604 193.044C555.265 193.997 554.731 193.997 553.128 192.898C551.926 192.018 551.125 191.871 550.457 192.458C548.587 193.924 537.234 194.144 534.83 192.824C532.159 191.358 528.286 192.458 527.618 194.877C527.084 196.856 526.55 196.783 521.741 194.584C519.337 193.484 516.132 192.751 513.594 192.751C507.985 192.751 503.31 192.018 503.31 191.211C503.31 190.845 514.663 190.552 528.553 190.552C554.864 190.552 555.799 190.405 557.001 187.253C557.535 185.713 558.337 185.64 568.487 186.593C574.898 187.179 575.432 188.572 569.289 188.939C561.809 189.452 562.611 190.552 570.491 190.552C576.768 190.552 578.504 190.845 581.309 192.384C585.049 194.437 590.257 194.804 592.795 193.117C594.932 191.725 593.329 190.552 589.323 190.552C582.645 190.552 586.919 188.719 593.997 188.499C598.672 188.352 600.809 187.986 600.408 187.399C600.007 186.813 596.935 186.593 591.326 186.666C583.58 186.813 583.045 186.739 585.316 185.786C587.853 184.687 587.853 184.687 584.915 184.687C583.312 184.687 582.377 184.394 582.778 183.954C583.179 183.587 587.987 183.221 593.463 183.221C604.281 183.221 607.487 182.781 607.487 181.388C607.487 180.142 603.213 179.555 594.131 179.555C590.124 179.555 583.446 178.895 579.439 178.089C575.432 177.282 569.422 176.623 566.083 176.623C562.744 176.623 556.333 176.11 551.792 175.523C547.251 174.937 542.577 174.643 541.508 174.863C540.44 175.083 538.57 175.01 537.501 174.643C536.032 174.203 540.173 173.324 551.659 171.564C567.82 169.145 590.257 164.527 596.268 162.327C601.744 160.348 600.274 159.395 592.127 159.615C586.251 159.835 584.114 159.615 581.309 158.368C576.902 156.462 572.494 156.389 567.152 158.075C563.412 159.322 563.145 159.322 561.943 158.075C560.34 156.536 557.803 156.462 552.594 158.002C550.323 158.588 547.518 158.955 546.316 158.662C544.714 158.368 546.049 157.635 551.392 156.169C555.398 155.07 560.607 153.603 562.744 152.944C565.015 152.284 569.556 151.111 573.162 150.304C579.973 148.692 581.977 146.859 575.833 147.812C573.696 148.178 569.422 148.252 566.083 148.178C556.734 147.739 553.395 147.739 532.426 148.252C514.129 148.618 508.786 148.252 512.927 146.859C513.861 146.566 518.135 146.272 522.676 146.272C528.152 146.199 530.556 145.906 530.423 145.319C530.156 144.806 532.026 144.22 534.43 144.073C536.7 143.853 544.447 143.12 551.392 142.534C558.337 141.874 565.95 141.214 568.354 140.994C577.302 140.261 573.429 139.528 560.741 139.528C553.529 139.601 547.786 139.748 548.053 140.041C548.32 140.261 540.573 140.408 530.69 140.408C520.807 140.408 513.194 140.188 513.728 139.894C515.197 139.161 546.984 134.323 556.734 133.37C561.542 132.857 567.552 132.197 570.224 131.83C572.895 131.464 578.771 131.17 583.312 131.17H591.593L591.192 128.751C590.792 126.625 590.391 126.405 585.85 126.185C583.045 126.039 580.775 125.746 580.775 125.452C580.775 125.232 582.244 124.206 583.98 123.18C585.85 122.08 588.922 119.514 591.059 117.315C595.466 112.55 599.74 110.644 607.22 110.13C611.894 109.764 613.096 109.984 616.168 111.817C619.641 113.869 619.641 113.869 622.312 112.403C624.983 110.937 624.983 110.937 620.175 108.591C614.832 105.878 614.298 104.779 618.171 104.779C619.641 104.779 620.843 104.486 620.843 104.119C620.843 103.313 618.839 102.946 607.487 101.773C602.679 101.333 597.737 100.6 596.535 100.234C593.329 99.3539 594.932 97.5945 599.607 97.0813C605.483 96.3482 605.617 95.3218 600.007 92.3161C597.069 90.8499 593.997 89.0172 593.062 88.3574C592.127 87.6976 589.456 87.1844 586.785 87.1844C584.247 87.1844 582.11 86.8179 582.11 86.4513C582.11 86.0115 583.58 85.7182 585.316 85.7182C587.186 85.7182 589.055 85.3517 589.456 84.9118C590.124 84.3987 593.997 84.3253 600.942 84.6919C609.891 85.1318 611.493 84.9851 611.493 84.0321C611.493 83.2257 609.624 82.8591 605.216 82.5659C601.61 82.4193 593.997 81.6862 588.121 81.0997C582.244 80.5132 570.224 79.5602 561.409 79.1203C544.179 78.2406 545.782 78.6805 538.169 73.1822C536.299 71.7893 533.094 70.9096 528.419 70.3231C519.471 69.1502 518.002 68.4904 518.002 65.558C518.002 64.1651 517.334 62.9921 516.666 62.8455C515.731 62.6989 515.731 61.8925 516.666 60.2796C518.269 57.9337 523.211 56.3942 529.354 56.3942C533.895 56.3942 539.371 53.1686 539.371 50.6027C539.371 48.1102 536.433 46.8639 530.423 46.8639C527.485 46.8639 527.084 46.7173 528.687 46.1308C530.423 45.471 530.423 45.3244 528.687 44.6646C527.618 44.298 525.748 43.9315 524.68 43.8582C519.337 43.7116 530.022 42.392 550.724 40.6325C563.278 39.5329 573.963 38.3599 574.631 37.9934C575.432 37.6268 575.299 36.6738 574.364 35.5741C573.028 33.888 573.295 33.7414 578.504 33.0083C586.518 31.9086 589.456 30.5891 583.58 30.8823C580.775 31.0289 578.771 30.7357 578.504 30.1492C578.104 29.5627 579.84 29.2695 584.648 29.2695C588.388 29.2695 591.46 28.9029 591.46 28.5364C591.46 28.0965 589.99 27.8033 588.121 27.8033C586.251 27.8033 582.11 27.0702 579.038 26.1905C575.432 25.1641 569.956 24.5043 563.679 24.2844C556.2 23.9912 554.063 23.6979 554.597 22.9648C555.131 22.1584 553.128 21.9385 544.847 21.9385C537.101 21.9385 534.163 21.6452 533.628 20.9121C533.228 20.3257 530.69 19.5192 528.152 19.0061C521.474 17.8331 522.009 16.6602 529.087 17.3199C535.231 17.9797 543.245 17.9064 553.128 17.1733C564.481 16.2936 559.539 14.6075 545.382 14.6075C536.834 14.6075 531.625 13.5811 535.632 12.7747C536.834 12.4815 541.909 12.0416 546.984 11.8217C554.864 11.3818 556.066 11.0886 556.066 9.84232C556.066 8.52274 555.131 8.37612 546.049 8.37612C537.501 8.37612 535.365 8.08288 532.026 6.61667C528.419 5.07716 527.217 5.00385 519.204 5.44371C510.389 5.88357 510.255 5.88357 507.317 3.61096C504.646 1.55828 504.112 1.41166 502.108 2.438C499.704 3.61096 497.167 3.9042 490.756 3.75758C487.417 3.61096 487.15 3.39103 487.817 1.77821C488.886 -0.641022 486.615 -0.567712 480.872 1.85152Z" fill="url(#paint0_linear_74_215)"/>
<path d="M63.3655 8.52267L56.821 10.3554L63.6326 14.0942C70.0434 17.5398 70.7112 17.7597 72.7146 16.7334C74.5845 15.6337 74.4509 15.3405 71.1119 13.6544C67.2387 11.675 67.6394 11.2351 74.3173 10.7953L77.5228 10.5754L73.6495 8.59598L69.9099 6.68992L63.3655 8.52267Z" fill="url(#paint1_linear_74_215)"/>
<path d="M569.823 10.9421C572.227 12.1883 575.566 13.1414 577.302 13.1414C580.507 13.1414 587.452 10.6488 587.452 9.40254C587.452 9.03599 582.511 8.74275 576.5 8.74275L565.415 8.81606L569.823 10.9421Z" fill="url(#paint2_linear_74_215)"/>
<path d="M591.459 10.1352C591.459 10.5017 592.127 11.0882 592.795 11.3081C593.596 11.5281 594.13 11.4547 594.13 11.0149C594.13 10.6484 593.596 10.0619 592.795 9.84198C592.127 9.62206 591.459 9.69536 591.459 10.1352Z" fill="url(#paint3_linear_74_215)"/>
<path d="M569.823 22.4512C570.758 22.6711 571.96 22.5978 572.361 22.3779C572.895 22.158 572.093 21.938 570.624 22.0113C569.155 22.0113 568.754 22.2313 569.823 22.4512Z" fill="url(#paint4_linear_74_215)"/>
<path d="M38.5231 27.437C36.3861 29.563 35.8519 29.6363 25.3007 28.1701C18.8898 27.2171 16.0851 27.1437 11.8111 27.8035C2.99622 29.1231 5.13317 30.8092 17.4206 32.5687C25.9685 33.7416 28.7732 33.815 33.3142 33.1552C39.8586 32.2021 42.1292 32.4954 43.1976 34.4747C44.3997 36.3808 42.1292 37.7737 33.5813 40.4129C26.102 42.7588 25.4342 43.272 28.239 44.5915C30.9102 45.7645 37.1875 44.5182 45.7353 41.2193C51.2112 39.02 52.6804 38.0669 51.7454 37.2605C49.4749 35.2812 50.5434 34.0349 55.8858 32.2021C58.8241 31.2491 61.7624 29.4897 62.4302 28.39C63.6322 26.4839 63.4987 26.3373 60.0261 26.3373C58.0227 26.3373 53.4817 26.7772 49.8756 27.3637C43.8654 28.39 43.5983 28.39 42.9305 26.9971C41.9956 25.0911 40.66 25.2377 38.5231 27.437Z" fill="url(#paint5_linear_74_215)"/>
<path d="M618.839 95.9813C618.438 96.3478 618.706 96.7144 619.373 96.7144C620.175 96.7144 620.843 96.3478 620.843 95.9813C620.843 95.5414 620.575 95.2482 620.308 95.2482C619.908 95.2482 619.24 95.5414 618.839 95.9813Z" fill="url(#paint6_linear_74_215)"/>
<path d="M0.0580434 122.08C0.592281 123.62 2.99635 123.766 3.53059 122.154C3.79771 121.421 3.12991 120.907 1.79432 120.907C0.458722 120.907 -0.209076 121.347 0.0580434 122.08Z" fill="url(#paint7_linear_74_215)"/>
<path d="M13.0135 122.447C10.8766 123.62 10.6094 124.133 11.945 125.013C14.082 126.479 19.0237 126.332 21.6949 124.646C26.7701 121.567 18.623 119.368 13.0135 122.447Z" fill="url(#paint8_linear_74_215)"/>
<path d="M36.5198 135.862C35.0507 136.449 34.3829 137.255 34.9171 138.061C36.2527 139.894 45.6019 139.381 46.2697 137.475C47.2046 135.056 41.0609 134.029 36.5198 135.862Z" fill="url(#paint9_linear_74_215)"/>
<path d="M612.829 185.42C609.624 187.179 609.09 192.018 612.028 192.018C613.096 192.018 614.432 191.358 614.833 190.552C615.367 189.745 618.038 188.426 620.976 187.619C627.922 185.64 627.922 183.954 620.843 183.954C617.237 183.954 614.566 184.467 612.829 185.42Z" fill="url(#paint10_linear_74_215)"/>
<path d="M623.514 197.882C623.514 198.249 624.181 198.615 624.849 198.615C625.651 198.615 626.185 198.249 626.185 197.882C626.185 197.443 625.651 197.149 624.849 197.149C624.181 197.149 623.514 197.443 623.514 197.882Z" fill="url(#paint11_linear_74_215)"/>
<path d="M610.826 202.574C613.497 203.601 615.5 203.454 615.5 202.208C615.5 201.841 613.897 201.548 611.894 201.548C608.421 201.548 608.421 201.621 610.826 202.574Z" fill="url(#paint12_linear_74_215)"/>
<path d="M487.284 246.047C483.41 246.487 480.338 247.66 481.273 248.467C482.208 249.346 493.961 248.027 496.366 246.707C498.369 245.608 498.235 245.534 494.629 245.608C492.359 245.681 489.153 245.901 487.284 246.047Z" fill="url(#paint13_linear_74_215)"/>
<defs>
<linearGradient id="paint0_linear_74_215" x1="322.866" y1="260" x2="322.866" y2="0" gradientUnits="userSpaceOnUse">
<stop stop-color="#E74416"/>
<stop offset="1" stop-color="#EF7703"/>
</linearGradient>
<linearGradient id="paint1_linear_74_215" x1="67.1719" y1="17.2712" x2="67.1719" y2="6.68992" gradientUnits="userSpaceOnUse">
<stop stop-color="#F86335"/>
<stop offset="1" stop-color="#E74416"/>
</linearGradient>
<linearGradient id="paint2_linear_74_215" x1="576.434" y1="13.1414" x2="576.434" y2="8.74275" gradientUnits="userSpaceOnUse">
<stop stop-color="#F86335"/>
<stop offset="1" stop-color="#E74416"/>
</linearGradient>
<linearGradient id="paint3_linear_74_215" x1="592.795" y1="11.4282" x2="592.795" y2="9.72189" gradientUnits="userSpaceOnUse">
<stop stop-color="#F86335"/>
<stop offset="1" stop-color="#E74416"/>
</linearGradient>
<linearGradient id="paint4_linear_74_215" x1="570.873" y1="22.584" x2="570.873" y2="21.997" gradientUnits="userSpaceOnUse">
<stop stop-color="#F86335"/>
<stop offset="1" stop-color="#E74416"/>
</linearGradient>
<linearGradient id="paint5_linear_74_215" x1="34.7762" y1="45.0234" x2="34.7762" y2="25.6697" gradientUnits="userSpaceOnUse">
<stop stop-color="#F86335"/>
<stop offset="1" stop-color="#E74416"/>
</linearGradient>
<linearGradient id="paint6_linear_74_215" x1="619.747" y1="96.7144" x2="619.747" y2="95.2482" gradientUnits="userSpaceOnUse">
<stop stop-color="#F86335"/>
<stop offset="1" stop-color="#E74416"/>
</linearGradient>
<linearGradient id="paint7_linear_74_215" x1="1.79432" y1="123.301" x2="1.79432" y2="120.907" gradientUnits="userSpaceOnUse">
<stop stop-color="#F86335"/>
<stop offset="1" stop-color="#E74416"/>
</linearGradient>
<linearGradient id="paint8_linear_74_215" x1="17.2106" y1="126.019" x2="17.2106" y2="120.964" gradientUnits="userSpaceOnUse">
<stop stop-color="#F86335"/>
<stop offset="1" stop-color="#E74416"/>
</linearGradient>
<linearGradient id="paint9_linear_74_215" x1="40.5497" y1="139.2" x2="40.5497" y2="134.926" gradientUnits="userSpaceOnUse">
<stop stop-color="#F86335"/>
<stop offset="1" stop-color="#E74416"/>
</linearGradient>
<linearGradient id="paint10_linear_74_215" x1="618.133" y1="192.018" x2="618.133" y2="183.954" gradientUnits="userSpaceOnUse">
<stop stop-color="#F86335"/>
<stop offset="1" stop-color="#E74416"/>
</linearGradient>
<linearGradient id="paint11_linear_74_215" x1="624.849" y1="198.615" x2="624.849" y2="197.149" gradientUnits="userSpaceOnUse">
<stop stop-color="#F86335"/>
<stop offset="1" stop-color="#E74416"/>
</linearGradient>
<linearGradient id="paint12_linear_74_215" x1="612.319" y1="203.254" x2="612.319" y2="201.548" gradientUnits="userSpaceOnUse">
<stop stop-color="#F86335"/>
<stop offset="1" stop-color="#E74416"/>
</linearGradient>
<linearGradient id="paint13_linear_74_215" x1="489.382" y1="248.751" x2="489.382" y2="245.587" gradientUnits="userSpaceOnUse">
<stop stop-color="#F86335"/>
<stop offset="1" stop-color="#E74416"/>
</linearGradient>
</defs>
</svg>
