<svg xmlns="http://www.w3.org/2000/svg" width="60" height="61" fill="none"><g clip-path="url(#a)"><path fill="url(#b)" d="M5.508 60.202C2.93 59.647.722 57.415.176 54.818c-.259-1.234-.259-47.632 0-48.867.552-2.626 2.765-4.839 5.39-5.39 1.235-.26 47.633-.26 48.868 0 2.625.551 4.839 2.764 5.39 5.39.259 1.235.259 47.633 0 48.867-.551 2.626-2.765 4.84-5.39 5.39-1.2.253-47.755.246-48.926-.006Zm26.836-14.055v-9.551H25.313V29.33h7.007l.053-3.369c.046-2.982.082-3.477.306-4.307 1.035-3.832 3.966-6.758 7.83-7.814.806-.22 1.309-.257 4.169-.301l3.252-.051v7.287h-2.691c-3.176 0-3.653.109-4.587 1.043-.941.94-1.043 1.397-1.043 4.704v2.808H48.072l-.061.264c-.034.145-.312 1.78-.617 3.633l-.556 3.369h-7.229v19.108l7.061-.032 7.06-.033.448-.278c.246-.153.589-.492.762-.753l.314-.476V6.654l-.278-.447a3.002 3.002 0 0 0-.753-.762l-.475-.314H6.252l-.475.314a3 3 0 0 0-.753.762l-.278.447-.03 23.48c-.021 16.296.007 23.62.094 23.941.151.562.892 1.336 1.426 1.49.231.067 5.522.115 13.247.122l12.86.01v-9.55Z"/></g><defs><linearGradient id="b" x1="30" x2="30" y1=".367" y2="60.394" gradientUnits="userSpaceOnUse"><stop stop-color="#E74416"/><stop offset="1" stop-color="#EF7703"/></linearGradient><clipPath id="a"><path fill="#fff" d="M0 .38h60v60H0z"/></clipPath></defs></svg>