<svg width="114" height="18" viewBox="0 0 114 18" fill="none" xmlns="http://www.w3.org/2000/svg">
<g clip-path="url(#clip0_79_308)">
<path d="M4.34231 13.414L0 9.46382L5.34231 3.95893C8.72337 0.474978 10.6846 -0.781586 10.6846 0.536133C10.6846 1.68128 10.0846 2.98904 9.35128 3.44226C8.61795 3.89549 8.01795 4.6809 8.01795 5.18762C8.01795 5.69434 29.8588 6.10893 56.5531 6.10893C101.642 6.10893 105.003 5.94948 103.886 3.86325C101.101 -1.34212 103.045 -1.27724 107.915 3.99766L113.146 9.66343L108.915 13.5138C106.588 15.6314 104.235 17.3817 103.685 17.4032C101.992 17.4693 102.576 14.4388 104.711 12.0802C106.587 10.0063 105.925 9.77833 95.7106 8.98322C81.3915 7.86856 33.2099 7.86412 17.5456 8.97602C6.54395 9.75693 5.5962 10.0294 8.0074 11.7183C10.5813 13.5211 11.7504 17.4839 9.68462 17.4032C9.13462 17.3817 6.73058 15.5865 4.34231 13.414Z" fill="url(#paint0_linear_79_308)"/>
</g>
<defs>
<linearGradient id="paint0_linear_79_308" x1="110.5" y1="9.50002" x2="1.99999" y2="8.00002" gradientUnits="userSpaceOnUse">
<stop stop-color="#E74416"/>
<stop offset="1" stop-color="#EF7703"/>
</linearGradient>
<clipPath id="clip0_79_308">
<rect width="113.146" height="17.4044" fill="white"/>
</clipPath>
</defs>
</svg>
