<svg width="81" height="80" viewBox="0 0 81 80" fill="none" xmlns="http://www.w3.org/2000/svg">
<path d="M40.7111 72.4918C57.1086 72.4918 70.4014 58.0024 70.4014 40.1287C70.4014 22.2551 57.1086 7.76562 40.7111 7.76562C24.3136 7.76562 11.0208 22.2551 11.0208 40.1287C11.0208 58.0024 24.3136 72.4918 40.7111 72.4918Z" fill="black"/>
<path d="M34.4457 3.5625C14.102 7.21875 0.570744 26.3438 4.03949 46.5C6.57075 61.25 16.977 72.4062 31.9457 76.4375C34.6645 77.1562 35.5082 77.2188 40.727 77.2188C45.9457 77.2188 46.7895 77.1562 49.5082 76.4375C60.727 73.4062 69.3208 66.5312 74.102 56.7188C83.0395 38.375 75.7895 16.4688 57.727 7.21875C50.5707 3.5625 41.9458 2.1875 34.4457 3.5625ZM44.1645 22.75V25.5625H40.8832H37.602V46.1875V66.8125H34.7895H31.977V43.375V19.9375H38.0707H44.1645V22.75ZM57.6958 21.125C60.3833 22.4688 62.5708 24.6562 63.9145 27.3438C64.8833 29.3438 64.9458 29.625 64.9458 32.9062C64.9458 36.125 64.8833 36.4688 63.9458 38.4375C62.6645 41.1875 60.4145 43.4375 57.6645 44.7188C55.6957 45.6562 55.3207 45.7188 51.4457 45.8125L47.2895 45.9375V43.25V40.5625H50.0395C53.7582 40.5625 55.6332 39.9688 57.4145 38.25C61.1333 34.625 60.1333 28.625 55.3832 26.1562C54.2582 25.5938 53.352 25.4375 50.5082 25.3125L46.977 25.1562V22.5312V19.875L51.2895 20C55.4145 20.0938 55.6645 20.125 57.6958 21.125ZM29.3832 21.875C30.227 22.8438 30.477 23.9688 30.0707 25.3438C29.7895 26.3438 29.6332 26.5 28.852 26.5C28.3207 26.5 27.9145 26.4688 27.9145 26.4062C27.9145 26.375 28.0395 25.8438 28.227 25.25C28.602 23.9062 28.352 23.0625 27.5707 23.0625C27.1645 23.0625 26.7895 23.4375 26.477 24.1562C25.4457 26.6562 23.602 27.2188 21.9457 25.5938C21.0395 24.6875 20.852 23.9062 21.227 22.5C21.3832 22 21.6645 21.8125 22.2895 21.8125C23.0707 21.8125 23.1332 21.9062 23.102 23.125C23.0707 24.2812 23.1645 24.4688 23.6957 24.4688C24.0707 24.4688 24.477 24.125 24.7582 23.5312C25.5082 21.875 26.352 21.1875 27.602 21.1875C28.3832 21.1875 28.9457 21.4062 29.3832 21.875ZM30.102 34.4062C30.102 35.3125 29.8832 35.5938 28.477 36.5938L26.8207 37.75H28.477C30.0707 37.75 30.102 37.75 30.102 38.6875V39.625H25.5395H21.0082L21.102 38.75C21.1957 37.9688 21.3207 37.9062 22.852 37.75L24.5082 37.5938L22.7582 36.5625C21.2895 35.6875 21.0395 35.4062 21.0395 34.5938C21.0395 34.0938 21.1645 33.6875 21.2895 33.6875C21.4457 33.6875 22.4457 34.25 23.5082 34.9375C24.5707 35.625 25.5395 36.1875 25.6645 36.1875C25.7895 36.1875 26.7895 35.5625 27.8832 34.7812C29.0082 34 29.9457 33.375 30.0082 33.375C30.0707 33.375 30.102 33.8438 30.102 34.4062ZM22.9145 48.5312C22.9145 49.875 22.9457 49.9375 23.852 49.9375C24.727 49.9375 24.7895 49.875 24.7895 48.6562C24.7895 47.4688 24.8207 47.4062 25.6645 47.5C26.3832 47.5938 26.5082 47.75 26.602 48.75C26.6957 49.75 26.8207 49.9375 27.4457 49.9375C28.102 49.9375 28.1957 49.7812 28.2895 48.5938C28.3832 47.4062 28.477 47.2812 29.2582 47.1875L30.102 47.0938V49.4688V51.8438L25.6645 51.75L21.1957 51.6562L21.102 49.8125C20.977 47.5312 21.1332 47.125 22.1332 47.125C22.852 47.125 22.9145 47.25 22.9145 48.5312ZM25.8832 59.7812C26.477 60.3438 26.6645 60.875 26.6645 61.9688V63.375H28.3832C30.102 63.375 30.102 63.375 30.102 64.3125V65.2812L25.6645 65.1875L21.1957 65.0938V62.8125C21.1957 60.6875 21.2582 60.4375 22.0707 59.75C23.2582 58.75 24.8832 58.75 25.8832 59.7812Z" fill="url(#paint0_linear_74_267)"/>
<path d="M23.1333 61.094C23.0083 61.1877 22.9146 61.7815 22.9146 62.344C22.9146 63.3752 22.9771 63.4065 23.9458 63.3127C24.7271 63.2502 24.9771 63.0627 25.0396 62.5002C25.2271 61.3127 23.8833 60.344 23.1333 61.094Z" fill="#B8A82F"/>
<defs>
<linearGradient id="paint0_linear_74_267" x1="40.711" y1="77.2188" x2="40.711" y2="3.03931" gradientUnits="userSpaceOnUse">
<stop stop-color="#E74416"/>
<stop offset="1" stop-color="#EF7703"/>
</linearGradient>
</defs>
</svg>
