<svg width="176" height="8" viewBox="0 0 176 8" fill="none" xmlns="http://www.w3.org/2000/svg">
<path d="M82.2689 0.0270083C55.2689 0.423008 44.1989 0.765008 33.4439 1.53901C29.2589 1.82701 23.0489 2.22301 19.7189 2.42101C15.5339 2.67301 12.4739 2.97901 9.81893 3.39301C7.70393 3.73501 5.09393 4.04101 4.01393 4.11301C2.93393 4.16701 1.67393 4.36501 1.22393 4.54501C0.503932 4.85101 0.503932 4.92301 1.13393 5.53501C1.62893 6.03901 2.43893 6.34501 4.14893 6.72301L6.44393 7.24501L18.8189 7.11901C30.7439 6.99301 47.0789 7.10101 69.2189 7.47901C82.3139 7.69501 106.704 7.71301 114.219 7.47901C117.324 7.38901 122.004 7.19101 124.569 7.02901C133.569 6.48901 139.689 6.21901 146.169 6.09301C151.839 5.98501 152.424 5.94901 150.669 5.80501C148.869 5.66101 148.779 5.62501 149.679 5.48101C150.804 5.31901 158.769 5.04901 168.264 4.85101C171.639 4.79701 174.699 4.67101 175.014 4.58101C175.509 4.45501 175.419 4.41901 174.744 4.40101C174.249 4.40101 174.069 4.34701 174.339 4.31101C174.654 4.25701 174.789 4.07701 174.654 3.89701C174.474 3.64501 173.799 3.53701 171.684 3.42901C168.984 3.32101 163.809 2.78101 159.714 2.18701C157.284 1.82701 149.724 1.10701 145.719 0.837008C135.999 0.189008 130.419 0.0630083 108.369 0.0270083C96.1289 -0.00899167 84.3839 -0.00899167 82.2689 0.0270083ZM147.069 5.67901C147.069 5.76901 146.889 5.85901 146.619 5.85901C146.394 5.85901 146.169 5.76901 146.169 5.67901C146.169 5.57101 146.394 5.49901 146.619 5.49901C146.889 5.49901 147.069 5.57101 147.069 5.67901Z" fill="#EF7703"/>
</svg>
