<svg width="110" height="18" fill="none" xmlns="http://www.w3.org/2000/svg"><path d="M51.425 6.048c-16.5.396-23.265.738-29.837 1.512-2.558.288-6.353.684-8.388.882-2.557.252-4.427.558-6.05.972-1.292.342-2.887.648-3.547.72-.66.054-1.43.252-1.705.432-.44.306-.44.378-.055.99.302.504.797.81 1.842 1.188l1.403.522 7.562-.126c7.287-.126 17.27-.018 30.8.36 8.002.216 22.907.234 27.5 0 1.897-.09 4.757-.288 6.325-.45 5.5-.54 9.24-.81 13.2-.936 3.465-.108 3.823-.144 2.75-.288-1.1-.144-1.155-.18-.605-.324.688-.162 5.555-.432 11.358-.63 2.062-.054 3.932-.18 4.125-.27.302-.126.247-.162-.165-.18-.303 0-.413-.054-.248-.09.193-.054.275-.234.193-.414-.11-.252-.523-.36-1.815-.468-1.65-.108-4.813-.648-7.316-1.242-1.484-.36-6.105-1.08-8.552-1.35-5.94-.648-9.35-.774-22.825-.81-7.48-.036-14.657-.036-15.95 0zm39.6 5.652c0 .09-.11.18-.275.18-.138 0-.275-.09-.275-.18 0-.108.138-.18.275-.18.165 0 .275.072.275.18z" fill="#fff"/></svg>