<svg width="61" height="61" viewBox="0 0 61 61" fill="none" xmlns="http://www.w3.org/2000/svg">
<path d="M44.24 36.3372C43.4881 35.9566 39.8262 34.1697 39.1419 33.9147C38.4575 33.671 37.9606 33.5435 37.4619 34.2954C36.9744 35.0285 35.5381 36.7066 35.0994 37.196C34.6606 37.6854 34.2294 37.7229 33.4887 37.391C32.7369 37.0104 30.335 36.2285 27.4831 33.671C25.2556 31.6891 23.7725 29.2479 23.3319 28.496C22.8931 27.7535 23.2831 27.3335 23.6544 26.9622C23.9956 26.621 24.4063 26.1035 24.7869 25.6535C25.1488 25.2035 25.265 24.9016 25.5294 24.4141C25.7731 23.8872 25.6475 23.4766 25.4619 23.1054C25.2762 22.7341 23.7819 19.0535 23.1575 17.5872C22.5612 16.1322 21.9369 16.3179 21.4775 16.3179C21.0481 16.2785 20.5494 16.2785 20.0525 16.2785C19.5556 16.2785 18.7437 16.4641 18.0594 17.1766C17.375 17.9285 15.4419 19.7247 15.4419 23.3585C15.4419 27.0016 18.1175 30.5266 18.4887 31.0535C18.8694 31.541 23.7519 39.041 31.2425 42.2641C33.0294 43.016 34.4169 43.466 35.5006 43.8372C37.2875 44.4035 38.9188 44.3247 40.2069 44.1391C41.6319 43.9047 44.6206 42.3316 45.2469 40.5747C45.8825 38.8066 45.8825 37.3422 45.6969 37.0104C45.5112 36.6691 45.0237 36.4835 44.2719 36.1516L44.24 36.3372ZM30.6556 54.7554H30.6163C26.1819 54.7554 21.7981 53.5535 17.9694 51.3072L17.0713 50.771L7.69625 53.2122L10.2163 44.0904L9.61063 43.1529C7.13938 39.2172 5.82125 34.676 5.82125 30.0091C5.82125 16.3966 16.9644 5.29287 30.6744 5.29287C37.3156 5.29287 43.5463 7.88037 48.2338 12.5679C52.9213 17.216 55.5087 23.4466 55.5087 30.0485C55.49 43.6516 44.3562 54.7554 30.665 54.7554H30.6556ZM51.7981 9.0035C46.0944 3.49475 38.5944 0.380371 30.6163 0.380371C14.1613 0.380371 0.7625 13.721 0.753125 30.116C0.753125 35.351 2.12 40.4585 4.7375 44.9791L0.5 60.3804L16.34 56.2497C20.705 58.6029 25.6175 59.8629 30.6181 59.8722H30.6275C47.0919 59.8722 60.4906 46.5316 60.5 30.1254C60.5 22.1866 57.4044 14.7147 51.7606 9.09912L51.7981 9.0035Z" fill="url(#paint0_linear_74_273)"/>
<defs>
<linearGradient id="paint0_linear_74_273" x1="30.5" y1="0.380371" x2="30.5" y2="60.3804" gradientUnits="userSpaceOnUse">
<stop stop-color="#E74416"/>
<stop offset="1" stop-color="#EF7703"/>
</linearGradient>
</defs>
</svg>
