<svg width="477" height="429" viewBox="0 0 477 429" fill="none" xmlns="http://www.w3.org/2000/svg">
<g clip-path="url(#clip0_74_31)">
<mask id="mask0_74_31" style="mask-type:luminance" maskUnits="userSpaceOnUse" x="113" y="0" width="251" height="300">
<path d="M363.5 0H113.5V300H363.5V0Z" fill="white"/>
</mask>
<g mask="url(#mask0_74_31)">
<path d="M231.061 195.135V90.2682L223.713 90.9771C219.672 91.3671 216.068 91.9864 215.705 92.3534C215.341 92.7206 213.454 96.6468 211.51 101.078C204.176 117.803 200.964 122.068 175.119 149.402C154.545 171.163 141.325 191.505 132.909 214.356C131.168 219.082 129.487 223.627 129.173 224.456C128.832 225.357 126.844 222.524 124.228 217.406C119.06 207.294 119.096 203.973 124.484 194.006C133.169 177.937 140.717 168.142 161.841 145.524C174.575 131.89 186.089 118.095 190.241 111.5C190.84 110.549 192.645 107.785 194.252 105.357C195.86 102.929 197.511 99.7045 197.922 98.1911C198.632 95.5733 198.516 95.4736 195.543 96.1408C186.404 98.1923 160.99 110.315 149.639 118.038C141.586 123.517 122.962 137.48 118.126 141.663C115.582 143.864 113.5 145.131 113.5 144.477C113.5 143.824 114.738 138.777 116.251 133.263C118.826 123.879 119.34 122.942 124.289 118.624C131.925 111.963 144.769 104.337 159.75 97.569C173.21 91.4886 190.844 85.0029 197.027 83.8586C201.482 83.0342 202.711 81.6326 201.997 78.1904C200.757 72.2146 193.491 68.3189 183.71 68.3852C181.315 68.4014 175.437 69.0699 170.648 69.8706C165.858 70.6713 161.704 71.3354 161.417 71.3463C161.13 71.3571 166.018 68.42 172.28 64.8193C182.389 59.0065 184.278 58.275 189.13 58.2946C199.032 58.3348 209.031 64.5737 213.197 73.3101L215.152 77.4093H223.106H231.061V58.2945V39.1796L224.353 43.1911C220.664 45.3974 217.447 47.0189 217.205 46.7944C216.82 46.439 220.352 38.1779 226.723 24.5314C227.757 22.3156 230.708 15.596 233.281 9.59898C236.772 1.45812 238.202 -0.900694 238.922 0.289642C240.156 2.32981 257.732 41.9093 258.755 44.9526L259.527 47.2443L255.362 45.0864C253.072 43.8996 249.852 42.0444 248.205 40.9637L245.211 38.9986V58.2039V77.4093H253.278H261.345L263.847 72.628C268.528 63.679 277.316 58.3336 287.409 58.2946C292.072 58.2767 294.202 58.9005 298.838 61.6431C301.972 63.497 306.986 66.4587 309.979 68.2248C313.774 70.464 314.598 71.281 312.7 70.9242C296.914 67.9558 291.334 67.7437 283.762 69.8244C277.923 71.4289 274.602 75.0424 274.602 79.7919C274.602 81.9906 275.358 82.5779 279.772 83.8073C301.53 89.867 324.798 99.9993 341.518 110.694C356.332 120.17 357.418 121.71 361.914 139.632L363.5 145.956L360.143 143.175C358.296 141.645 354.581 138.518 351.887 136.226C343.535 129.119 313.224 108.632 311.062 108.632C310.742 108.632 308.652 107.578 306.42 106.289C301.799 103.622 285.357 97.0911 280.861 96.1362C276.723 95.2574 276.974 96.7906 282.345 105.171C291.677 119.732 301.345 131.819 314.063 144.824C323.768 154.749 338.187 171.51 341.688 176.938C348.394 187.335 353.934 197.304 355.588 201.952L357.434 207.142L352.669 216.556L347.903 225.971L346.193 220.935C342.014 208.63 337.965 200.027 328.425 183.183C324.411 176.094 313.756 162.995 296.84 144.351C287.303 133.84 278.424 123.82 277.108 122.085C274.071 118.078 265.683 102.563 263.165 96.2943C261.706 92.6631 260.689 91.508 258.942 91.5013C257.677 91.4963 254.07 91.2068 250.927 90.8574L245.211 90.2223V195.111V300H238.136H231.061V195.135Z" fill="url(#paint0_linear_74_31)"/>
</g>
</g>
<path d="M90.9609 428.586C106.488 428.586 118.524 424.802 127.069 417.233C133.368 411.569 137.445 404.099 139.301 394.821C139.398 394.235 139.447 393.674 139.447 393.137C139.447 391.574 138.959 390.012 137.982 388.449C137.006 386.838 135.443 385.69 133.295 385.007C132.562 384.763 131.854 384.641 131.171 384.641C127.216 384.641 124.408 386.545 122.748 390.354C121.625 396.359 119.306 401.34 115.79 405.295C111.249 410.373 105.438 412.912 98.3584 412.912C90.5459 412.912 84.9062 409.763 81.4395 403.464C77.9727 397.165 76.2393 386.862 76.2393 372.556C76.2393 358.737 77.9238 348.703 81.293 342.453C84.6621 336.154 90.0332 333.005 97.4062 333.005C103.803 333.005 108.905 335.3 112.714 339.89C115.839 343.649 118.305 349.338 120.111 356.955C121.674 359.641 123.944 361.276 126.923 361.862H130.805C130.854 361.813 130.927 361.789 131.024 361.789C135.614 360.422 138.129 357.321 138.568 352.487C136.566 344.187 132.831 337.058 127.362 331.101C118.671 321.726 106.269 317.038 90.1553 317.038C73.2607 317.038 59.7109 322.116 49.5059 332.272C39.3496 342.38 34.2715 355.93 34.2715 372.922C34.2715 390.842 39.1543 404.611 48.9199 414.23C58.7344 423.801 72.748 428.586 90.9609 428.586ZM237.328 428.366C254.711 428.366 267.064 426.071 274.389 421.481C281.762 416.843 285.448 409.226 285.448 398.63C285.448 391.306 283.153 385.422 278.563 380.979C273.974 376.486 267.016 373.215 257.689 371.164C264.867 368.771 270.36 365.402 274.169 361.057C278.026 356.711 279.955 351.56 279.955 345.603C279.955 336.765 276.659 330.319 270.067 326.267C263.524 322.214 253.173 320.188 239.013 320.188H209.862C204.296 320.578 199.462 322.702 195.36 326.56C190.673 331.052 188.256 336.545 188.109 343.039V404.489C188.109 411.423 190.526 417.233 195.36 421.921C199.462 425.778 204.296 427.927 209.862 428.366H237.328ZM229.638 364.646H223.705V335.788H230.15C235.961 335.788 240.062 336.887 242.455 339.084C244.945 341.184 246.19 344.772 246.19 349.851C246.19 354.88 244.848 358.615 242.162 361.057C239.525 363.449 235.351 364.646 229.638 364.646ZM230.59 413.205H223.705V378.854H230.517C236.864 378.854 241.527 380.222 244.506 382.956C247.533 385.642 249.047 389.841 249.047 395.554C249.047 401.804 247.631 406.32 244.799 409.104C241.967 411.838 237.23 413.205 230.59 413.205ZM351.762 428.073C356.645 428.073 360.819 426.364 364.286 422.946C367.753 419.528 369.486 415.402 369.486 410.568V369.772L382.011 400.534L388.017 415.183C389.53 418.112 391.532 419.577 394.022 419.577C396.464 419.577 398.49 418.112 400.102 415.183L407.572 396.799L418.632 369.772L418.485 414.377C418.485 418.137 419.853 421.359 422.587 424.045C425.321 426.73 428.593 428.073 432.401 428.073C436.21 428.073 439.457 426.73 442.143 424.045C444.877 421.359 446.244 418.137 446.244 414.377L446.391 329.709C446.391 327.512 445.609 325.656 444.047 324.143C442.484 322.58 440.604 321.799 438.407 321.799H426.688C425.81 321.799 425.028 321.945 424.345 322.238C423.661 322.531 422.88 323.337 422.001 324.655C421.122 325.925 419.999 327.976 418.632 330.808L394.022 379.733L368.241 327.951C367.265 325.021 363.334 323.532 356.449 323.483C353.617 323.483 350.932 323.557 348.393 323.703C346.781 323.801 345.438 323.85 344.364 323.85C341.581 323.85 339.188 324.826 337.187 326.779C335.185 328.732 334.184 331.101 334.184 333.884V410.568C334.184 415.402 335.893 419.528 339.311 422.946C342.777 426.364 346.928 428.073 351.762 428.073Z" fill="url(#paint1_linear_74_31)"/>
<defs>
<linearGradient id="paint0_linear_74_31" x1="238.5" y1="1.61172e-07" x2="238.5" y2="300" gradientUnits="userSpaceOnUse">
<stop offset="0.255208" stop-color="#E74416"/>
<stop offset="1" stop-color="#EF7703"/>
</linearGradient>
<linearGradient id="paint1_linear_74_31" x1="238.5" y1="325" x2="238.5" y2="425" gradientUnits="userSpaceOnUse">
<stop stop-color="#EF7703"/>
<stop offset="1" stop-color="#E74416"/>
</linearGradient>
<clipPath id="clip0_74_31">
<rect width="250" height="300" fill="white" transform="translate(113.5)"/>
</clipPath>
</defs>
</svg>
