<?xml version="1.0" encoding="UTF-8" standalone="no"?>
<!-- Created with Inkscape (http://www.inkscape.org/) -->

<svg
   version="1.1"
   id="svg204"
   width="229.66855"
   height="297.85611"
   viewBox="0 0 229.66855 297.85611"
   sodipodi:docname="CBM-logo-transparente.png"
   xmlns:inkscape="http://www.inkscape.org/namespaces/inkscape"
   xmlns:sodipodi="http://sodipodi.sourceforge.net/DTD/sodipodi-0.dtd"
   xmlns="http://www.w3.org/2000/svg"
   xmlns:svg="http://www.w3.org/2000/svg">
  <defs
     id="defs208" />
  <sodipodi:namedview
     id="namedview206"
     pagecolor="#505050"
     bordercolor="#eeeeee"
     borderopacity="1"
     inkscape:showpageshadow="0"
     inkscape:pageopacity="0"
     inkscape:pagecheckerboard="0"
     inkscape:deskcolor="#505050"
     showgrid="false" />
  <g
     inkscape:groupmode="layer"
     inkscape:label="Image"
     id="g210"
     transform="translate(-141.21777,-62.51585)">
    <path
       style="fill:#000000"
       d="M 249.21778,256.25544 V 152.13895 l -6.75,0.70393 c -3.7125,0.38716 -7.0232,1.00208 -7.3571,1.36649 -0.33391,0.36442 -2.06789,4.26257 -3.85329,8.66257 -6.738,16.60539 -9.68855,20.83981 -33.43178,47.97902 -18.90114,21.60454 -31.04554,41.80128 -38.77748,64.48886 -1.59926,4.69266 -3.14369,9.20531 -3.43206,10.0281 -0.31357,0.8947 -2.13931,-1.91884 -4.54241,-7 -4.74801,-10.03932 -4.71471,-13.33709 0.23458,-23.2331 7.97873,-15.9533 14.9132,-25.67937 34.31883,-48.13454 11.69845,-13.53683 22.27661,-27.23299 26.09071,-33.78119 0.55,-0.94426 2.20829,-3.68895 3.6851,-6.09932 1.4768,-2.41036 2.99366,-5.6119 3.3708,-7.11453 0.65231,-2.59903 0.54593,-2.69813 -2.1851,-2.03563 -8.39594,2.03674 -31.74343,14.07299 -42.17115,21.74034 -7.39758,5.43933 -24.5074,19.30273 -28.94965,23.45672 -2.3375,2.18582 -4.25,3.44338 -4.25,2.79457 0,-0.6488 1.13719,-5.65932 2.52709,-11.13447 2.36545,-9.31809 2.83777,-10.24774 7.38424,-14.53425 7.01517,-6.61405 18.81443,-14.18572 32.57702,-20.9049 12.36524,-6.03697 28.56517,-12.47638 34.2454,-13.61243 4.09305,-0.81861 5.222,-2.21011 4.56589,-5.62776 -1.139,-5.93296 -7.81381,-9.80087 -16.79964,-9.73503 -2.2,0.0161 -7.6,0.67976 -12,1.47475 -4.4,0.79499 -8.21585,1.45429 -8.47968,1.46512 -0.26382,0.0108 4.22703,-2.90533 9.97968,-6.48033 9.28663,-5.7712 11.02225,-6.49754 15.47968,-6.47804 9.0961,0.0398 18.28262,6.23414 22.10962,14.90822 l 1.7956,4.06982 h 7.30755 7.30755 v -18.97819 -18.97819 l -6.1621,3.98275 c -3.38916,2.19052 -6.34444,3.80042 -6.5673,3.57756 -0.35284,-0.35284 2.89196,-8.55504 8.74432,-22.103935 0.95028,-2.2 3.66122,-8.87157 6.02431,-14.825712 3.20786,-8.082676 4.52098,-10.424631 5.18237,-9.242801 1.13357,2.025592 17.28081,41.322218 18.22114,44.343788 l 0.70808,2.27527 -3.82541,-2.14235 c -2.10398,-1.1783 -5.06291,-3.02031 -6.57541,-4.09337 l -2.75,-1.95101 v 19.0681 19.06809 h 7.41079 7.4108 l 2.29803,-4.74711 c 4.30117,-8.88503 12.37365,-14.19225 21.64576,-14.23093 4.28435,-0.0179 6.24069,0.60156 10.5,3.32456 2.87904,1.84059 7.48462,4.78117 10.23462,6.53464 3.48681,2.22327 4.2434,3.03436 2.5,2.68007 -14.50264,-2.94716 -19.62849,-3.15769 -26.58478,-1.0919 -5.36452,1.59309 -8.41522,5.18069 -8.41522,9.89622 0,2.18308 0.69456,2.76604 4.75,3.98676 19.98766,6.01646 41.3638,16.07627 56.72428,26.69496 13.61007,9.40863 14.60664,10.93677 18.73698,28.73105 l 1.45729,6.27831 -3.08427,-2.76117 c -1.69636,-1.51865 -5.10928,-4.62321 -7.58428,-6.89904 -7.67336,-7.05583 -35.51872,-27.39642 -37.50449,-27.39642 -0.29439,0 -2.21381,-1.047 -4.26538,-2.32668 -4.24508,-2.64787 -19.34909,-9.1322 -23.48013,-10.08029 -3.8018,-0.87253 -3.5704,0.64976 1.36354,8.97011 8.57284,14.45682 17.45527,26.45827 29.13816,39.36989 8.91599,9.8537 22.16173,26.49498 25.37884,31.88467 6.16118,10.32197 11.25045,20.2199 12.76953,24.83503 l 1.69605,5.15273 -4.37768,9.34727 -4.37768,9.34727 -1.57144,-5 c -3.83955,-12.21669 -7.55914,-20.75802 -16.32287,-37.48241 -3.68793,-7.03791 -13.47656,-20.04382 -29.01673,-38.55379 -8.76134,-10.43569 -16.9186,-20.38401 -18.12722,-22.10739 -2.7901,-3.97839 -10.49557,-19.38263 -12.80877,-25.60641 -1.33996,-3.6052 -2.27498,-4.75209 -3.87959,-4.75869 -1.16278,-0.005 -4.47664,-0.29246 -7.36414,-0.63929 l -5.25,-0.6306 v 104.13929 104.13929 h -6.5 -6.5 z"
       id="path926"
       inkscape:export-filename="logo-CBM.svg"
       inkscape:export-xdpi="96"
       inkscape:export-ydpi="96" />
  </g>
</svg>
